<svg width="32" height="32" viewBox="0 0 32 32" fill="none" xmlns="http://www.w3.org/2000/svg">
<path d="M16.4531 12.0409C14.2243 12.0409 12.4054 13.8598 12.4054 16.0885C12.4054 18.3173 14.2243 20.1362 16.4531 20.1362C18.6818 20.1362 20.5007 18.3173 20.5007 16.0885C20.5007 13.8598 18.6818 12.0409 16.4531 12.0409ZM28.5929 16.0885C28.5929 14.4124 28.6081 12.7514 28.514 11.0783C28.4199 9.13499 27.9765 7.41027 26.5555 5.98919C25.1313 4.56508 23.4096 4.12479 21.4663 4.03066C19.7902 3.93653 18.1292 3.95171 16.4561 3.95171C14.78 3.95171 13.119 3.93653 11.4459 4.03066C9.50254 4.12479 7.77782 4.56812 6.35674 5.98919C4.93263 7.4133 4.49234 9.13499 4.39821 11.0783C4.30408 12.7545 4.31926 14.4154 4.31926 16.0885C4.31926 17.7617 4.30408 19.4256 4.39821 21.0988C4.49234 23.0421 4.93567 24.7668 6.35674 26.1879C7.78086 27.612 9.50254 28.0523 11.4459 28.1464C13.122 28.2406 14.783 28.2254 16.4561 28.2254C18.1322 28.2254 19.7932 28.2406 21.4663 28.1464C23.4096 28.0523 25.1344 27.609 26.5555 26.1879C27.9796 24.7638 28.4199 23.0421 28.514 21.0988C28.6112 19.4256 28.5929 17.7647 28.5929 16.0885ZM16.4531 22.3164C13.0066 22.3164 10.2252 19.535 10.2252 16.0885C10.2252 12.6421 13.0066 9.86071 16.4531 9.86071C19.8995 9.86071 22.6809 12.6421 22.6809 16.0885C22.6809 19.535 19.8995 22.3164 16.4531 22.3164ZM22.936 11.0601C22.1313 11.0601 21.4815 10.4103 21.4815 9.60565C21.4815 8.80098 22.1313 8.15117 22.936 8.15117C23.7406 8.15117 24.3904 8.80098 24.3904 9.60565C24.3907 9.79672 24.3532 9.98596 24.2802 10.1625C24.2072 10.3391 24.1001 10.4995 23.965 10.6347C23.8299 10.7698 23.6694 10.8769 23.4928 10.9499C23.3163 11.0229 23.127 11.0604 22.936 11.0601Z" fill="#A0007D"/>
</svg>
