<svg width="93" height="29" viewBox="0 0 93 29" fill="none" xmlns="http://www.w3.org/2000/svg">
<path d="M43.8765 14.144C43.8765 14.568 43.7765 14.968 43.5765 15.344C43.3765 15.72 43.0565 16.028 42.6165 16.268C42.1765 16.5 41.6125 16.616 40.9245 16.616H39.4125V20H38.0445V11.66H40.9245C41.5645 11.66 42.1045 11.772 42.5445 11.996C42.9925 12.212 43.3245 12.508 43.5405 12.884C43.7645 13.26 43.8765 13.68 43.8765 14.144ZM40.9245 15.5C41.4445 15.5 41.8325 15.384 42.0885 15.152C42.3445 14.912 42.4725 14.576 42.4725 14.144C42.4725 13.232 41.9565 12.776 40.9245 12.776H39.4125V15.5H40.9245ZM44.7253 16.664C44.7253 16 44.8613 15.412 45.1333 14.9C45.4133 14.388 45.7893 13.992 46.2613 13.712C46.7413 13.424 47.2693 13.28 47.8453 13.28C48.3653 13.28 48.8173 13.384 49.2013 13.592C49.5933 13.792 49.9053 14.044 50.1373 14.348V13.388H51.5173V20H50.1373V19.016C49.9053 19.328 49.5893 19.588 49.1893 19.796C48.7893 20.004 48.3333 20.108 47.8213 20.108C47.2533 20.108 46.7333 19.964 46.2613 19.676C45.7893 19.38 45.4133 18.972 45.1333 18.452C44.8613 17.924 44.7253 17.328 44.7253 16.664ZM50.1373 16.688C50.1373 16.232 50.0413 15.836 49.8493 15.5C49.6653 15.164 49.4213 14.908 49.1173 14.732C48.8133 14.556 48.4853 14.468 48.1333 14.468C47.7813 14.468 47.4533 14.556 47.1493 14.732C46.8453 14.9 46.5973 15.152 46.4053 15.488C46.2213 15.816 46.1293 16.208 46.1293 16.664C46.1293 17.12 46.2213 17.52 46.4053 17.864C46.5973 18.208 46.8453 18.472 47.1493 18.656C47.4613 18.832 47.7893 18.92 48.1333 18.92C48.4853 18.92 48.8133 18.832 49.1173 18.656C49.4213 18.48 49.6653 18.224 49.8493 17.888C50.0413 17.544 50.1373 17.144 50.1373 16.688ZM62.1941 13.388L60.1421 20H58.7021L57.3701 15.116L56.0381 20H54.5981L52.5341 13.388H53.9261L55.3061 18.704L56.7101 13.388H58.1381L59.4821 18.68L60.8501 13.388H62.1941ZM65.6164 20.108C65.0964 20.108 64.6284 20.016 64.2124 19.832C63.8044 19.64 63.4804 19.384 63.2404 19.064C63.0004 18.736 62.8724 18.372 62.8564 17.972H64.2724C64.2964 18.252 64.4284 18.488 64.6684 18.68C64.9164 18.864 65.2244 18.956 65.5924 18.956C65.9764 18.956 66.2724 18.884 66.4804 18.74C66.6964 18.588 66.8044 18.396 66.8044 18.164C66.8044 17.916 66.6844 17.732 66.4444 17.612C66.2124 17.492 65.8404 17.36 65.3284 17.216C64.8324 17.08 64.4284 16.948 64.1164 16.82C63.8044 16.692 63.5324 16.496 63.3004 16.232C63.0764 15.968 62.9644 15.62 62.9644 15.188C62.9644 14.836 63.0684 14.516 63.2764 14.228C63.4844 13.932 63.7804 13.7 64.1644 13.532C64.5564 13.364 65.0044 13.28 65.5084 13.28C66.2604 13.28 66.8644 13.472 67.3204 13.856C67.7844 14.232 68.0324 14.748 68.0644 15.404H66.6964C66.6724 15.108 66.5524 14.872 66.3364 14.696C66.1204 14.52 65.8284 14.432 65.4604 14.432C65.1004 14.432 64.8244 14.5 64.6324 14.636C64.4404 14.772 64.3444 14.952 64.3444 15.176C64.3444 15.352 64.4084 15.5 64.5364 15.62C64.6644 15.74 64.8204 15.836 65.0044 15.908C65.1884 15.972 65.4604 16.056 65.8204 16.16C66.3004 16.288 66.6924 16.42 66.9964 16.556C67.3084 16.684 67.5764 16.876 67.8004 17.132C68.0244 17.388 68.1404 17.728 68.1484 18.152C68.1484 18.528 68.0444 18.864 67.8364 19.16C67.6284 19.456 67.3324 19.688 66.9484 19.856C66.5724 20.024 66.1284 20.108 65.6164 20.108ZM71.2226 14.504V18.164C71.2226 18.412 71.2786 18.592 71.3906 18.704C71.5106 18.808 71.7106 18.86 71.9906 18.86H72.8306V20H71.7506C71.1346 20 70.6626 19.856 70.3346 19.568C70.0066 19.28 69.8426 18.812 69.8426 18.164V14.504H69.0626V13.388H69.8426V11.744H71.2226V13.388H72.8306V14.504H71.2226ZM76.9594 20.108C76.3354 20.108 75.7714 19.968 75.2674 19.688C74.7634 19.4 74.3674 19 74.0794 18.488C73.7914 17.968 73.6474 17.368 73.6474 16.688C73.6474 16.016 73.7954 15.42 74.0914 14.9C74.3874 14.38 74.7914 13.98 75.3034 13.7C75.8154 13.42 76.3874 13.28 77.0194 13.28C77.6514 13.28 78.2234 13.42 78.7354 13.7C79.2474 13.98 79.6514 14.38 79.9474 14.9C80.2434 15.42 80.3914 16.016 80.3914 16.688C80.3914 17.36 80.2394 17.956 79.9354 18.476C79.6314 18.996 79.2154 19.4 78.6874 19.688C78.1674 19.968 77.5914 20.108 76.9594 20.108ZM76.9594 18.92C77.3114 18.92 77.6394 18.836 77.9434 18.668C78.2554 18.5 78.5074 18.248 78.6994 17.912C78.8914 17.576 78.9874 17.168 78.9874 16.688C78.9874 16.208 78.8954 15.804 78.7114 15.476C78.5274 15.14 78.2834 14.888 77.9794 14.72C77.6754 14.552 77.3474 14.468 76.9954 14.468C76.6434 14.468 76.3154 14.552 76.0114 14.72C75.7154 14.888 75.4794 15.14 75.3034 15.476C75.1274 15.804 75.0394 16.208 75.0394 16.688C75.0394 17.4 75.2194 17.952 75.5794 18.344C75.9474 18.728 76.4074 18.92 76.9594 18.92ZM83.1118 14.348C83.3118 14.012 83.5758 13.752 83.9038 13.568C84.2398 13.376 84.6358 13.28 85.0918 13.28V14.696H84.7438C84.2078 14.696 83.7998 14.832 83.5198 15.104C83.2478 15.376 83.1118 15.848 83.1118 16.52V20H81.7438V13.388H83.1118V14.348ZM92.4092 16.532C92.4092 16.78 92.3932 17.004 92.3612 17.204H87.3092C87.3492 17.732 87.5452 18.156 87.8972 18.476C88.2492 18.796 88.6812 18.956 89.1932 18.956C89.9292 18.956 90.4492 18.648 90.7532 18.032H92.2292C92.0292 18.64 91.6652 19.14 91.1372 19.532C90.6172 19.916 89.9692 20.108 89.1932 20.108C88.5612 20.108 87.9932 19.968 87.4892 19.688C86.9932 19.4 86.6012 19 86.3132 18.488C86.0332 17.968 85.8932 17.368 85.8932 16.688C85.8932 16.008 86.0292 15.412 86.3012 14.9C86.5812 14.38 86.9692 13.98 87.4652 13.7C87.9692 13.42 88.5452 13.28 89.1932 13.28C89.8172 13.28 90.3732 13.416 90.8612 13.688C91.3492 13.96 91.7292 14.344 92.0012 14.84C92.2732 15.328 92.4092 15.892 92.4092 16.532ZM90.9812 16.1C90.9732 15.596 90.7932 15.192 90.4412 14.888C90.0892 14.584 89.6532 14.432 89.1332 14.432C88.6612 14.432 88.2572 14.584 87.9212 14.888C87.5852 15.184 87.3852 15.588 87.3212 16.1H90.9812Z" fill="black"/>
<path d="M10.8306 21.1106C13.769 17.9203 16.6102 8.74546 10.002 2.65908C3.39376 -3.42729 -2.9117 2.99321 4.43436 9.75915" fill="#AF773F"/>
<path d="M18.992 2.65973C18.6251 2.99664 18.2774 3.35385 17.9506 3.72967C16.8285 3.3889 15.6623 3.21577 14.4897 3.21588C8.19921 3.21588 3.09985 8.15959 3.09985 13.4233C3.09985 14.1312 3.19223 14.821 3.36737 15.4848C3.68994 16.7075 3.84032 17.968 3.84366 19.2325C3.84371 19.2494 3.84383 19.2663 3.84405 19.2832C3.87742 21.7502 5.89156 23.7658 8.35848 23.8003C9.56498 23.8172 10.6661 23.3673 11.4934 22.62C12.4482 22.8373 13.4526 22.954 14.4897 22.954C15.5268 22.954 16.5312 22.8373 17.4861 22.62C18.3133 23.3673 19.4144 23.8172 20.6208 23.8003C23.0878 23.7658 25.102 21.7503 25.1353 19.2833C25.1355 19.2663 25.1357 19.2494 25.1357 19.2324C25.139 17.9679 25.2895 16.7073 25.612 15.4846C25.7897 14.8119 25.8796 14.119 25.8795 13.4232C25.8795 12.0446 25.5291 10.6882 24.8998 9.43655C31.7014 2.79952 25.498 -3.32311 18.992 2.65973Z" fill="#D19B61"/>
<path d="M23.4623 11.3241C23.7906 9.65154 22.7007 8.02952 21.0281 7.70129C19.3555 7.37306 17.7335 8.46288 17.4053 10.1355V10.1356L17.4052 10.1356C17.0731 11.241 17.2671 11.5942 17.1279 12.6567C16.9792 13.7918 16.789 13.5042 16.5249 14.8502C16.1309 16.8576 17.4389 18.8043 19.4463 19.1982C21.4183 19.5852 23.3306 18.3292 23.771 16.3817C23.7792 16.348 23.7872 16.3134 23.7943 16.2768C24.2007 14.206 23.0896 13.2235 23.4623 11.3241Z" fill="#AF773F"/>
<path d="M16.7537 25.1008C16.7537 26.8344 15.74 28.2398 14.4896 28.2398C13.2392 28.2398 12.2256 26.8344 12.2256 25.1008C12.2256 23.3672 13.2392 21.9618 14.4896 21.9618C15.74 21.9618 16.7537 23.3672 16.7537 25.1008ZM23.7696 7.66653L23.9404 7.36413C27.8898 3.73233 24.505 0.28037 20.9522 3.54734C20.5942 3.87654 20.2886 4.2229 20.0285 4.58087C21.5106 5.35747 22.7892 6.42282 23.7696 7.66653V7.66653ZM5.04986 7.35954L5.2174 7.6569C6.1991 6.41449 7.47849 5.3505 8.96106 4.57548C8.70187 4.21865 8.39743 3.87342 8.04099 3.54514C4.49081 0.275329 1.10331 3.72463 5.04986 7.35954V7.35954Z" fill="#FFA1E0"/>
<path d="M20.8056 20.0888C20.3764 18.4869 19.1764 17.3146 17.7655 16.9231V13.7623C17.7655 11.953 16.2988 10.4863 14.4896 10.4863C12.6804 10.4863 11.2137 11.953 11.2137 13.7623V16.9231C9.80284 17.3146 8.60285 18.4869 8.17363 20.0888C7.54763 22.425 8.79769 24.7897 10.9656 25.3706C12.1495 25.6878 13.3616 25.4063 14.3206 24.7059V21.9618H14.6587V24.7059C15.6177 25.4063 16.8298 25.6878 18.0137 25.3706C20.1816 24.7897 21.4316 22.4249 20.8056 20.0888Z" fill="#EADFD6"/>
<path d="M10.8082 22.954C10.8082 22.9002 10.8296 22.8487 10.8676 22.8107C10.9056 22.7727 10.9571 22.7513 11.0109 22.7513C11.0646 22.7513 11.1162 22.7727 11.1542 22.8107C11.1922 22.8487 11.2135 22.9002 11.2135 22.954C11.2135 23.0077 11.1922 23.0593 11.1542 23.0973C11.1162 23.1353 11.0646 23.1566 11.0109 23.1566C10.9571 23.1566 10.9056 23.1353 10.8676 23.0973C10.8296 23.0593 10.8082 23.0077 10.8082 22.954ZM10.5426 20.9222C10.5963 20.9222 10.6479 20.9009 10.6859 20.8629C10.7239 20.8249 10.7452 20.7733 10.7452 20.7196C10.7452 20.6658 10.7239 20.6143 10.6859 20.5763C10.6479 20.5383 10.5963 20.5169 10.5426 20.5169C10.4888 20.5169 10.4373 20.5383 10.3993 20.5763C10.3613 20.6143 10.3399 20.6658 10.3399 20.7196C10.3399 20.7733 10.3613 20.8249 10.3993 20.8629C10.4373 20.9009 10.4888 20.9222 10.5426 20.9222ZM9.30276 22.3671C9.35651 22.3671 9.40805 22.3458 9.44606 22.3078C9.48407 22.2698 9.50542 22.2182 9.50542 22.1645C9.50542 22.1107 9.48407 22.0592 9.44606 22.0212C9.40805 21.9832 9.35651 21.9618 9.30276 21.9618C9.24901 21.9618 9.19746 21.9832 9.15946 22.0212C9.12145 22.0592 9.1001 22.1107 9.1001 22.1645C9.1001 22.2182 9.12145 22.2698 9.15946 22.3078C9.19746 22.3458 9.24901 22.3671 9.30276 22.3671V22.3671ZM17.9486 20.5168C17.8948 20.5168 17.8433 20.5382 17.8052 20.5762C17.7672 20.6142 17.7459 20.6658 17.7459 20.7195C17.7459 20.7733 17.7672 20.8248 17.8052 20.8628C17.8433 20.9008 17.8948 20.9222 17.9486 20.9222C18.0023 20.9222 18.0538 20.9008 18.0919 20.8628C18.1299 20.8248 18.1512 20.7733 18.1512 20.7195C18.1512 20.6658 18.1299 20.6142 18.0919 20.5762C18.0538 20.5382 18.0023 20.5168 17.9486 20.5168V20.5168ZM18.4169 22.7513C18.3631 22.7513 18.3116 22.7727 18.2736 22.8107C18.2355 22.8487 18.2142 22.9002 18.2142 22.954C18.2142 23.0077 18.2355 23.0593 18.2736 23.0973C18.3116 23.1353 18.3631 23.1566 18.4169 23.1566C18.4706 23.1566 18.5222 23.1353 18.5602 23.0973C18.5982 23.0593 18.6195 23.0077 18.6195 22.954C18.6195 22.9002 18.5982 22.8487 18.5602 22.8107C18.5222 22.7727 18.4706 22.7513 18.4169 22.7513V22.7513ZM19.6567 21.3064C19.6029 21.3064 19.5514 21.3278 19.5134 21.3658C19.4754 21.4038 19.454 21.4553 19.454 21.5091C19.454 21.5628 19.4754 21.6144 19.5134 21.6524C19.5514 21.6904 19.6029 21.7117 19.6567 21.7117C19.7104 21.7117 19.762 21.6904 19.8 21.6524C19.838 21.6144 19.8593 21.5628 19.8593 21.5091C19.8593 21.4553 19.838 21.4038 19.8 21.3658C19.762 21.3278 19.7104 21.3064 19.6567 21.3064Z" fill="#AF773F"/>
<path d="M8.50281 11.9075C9.31526 11.9075 9.97388 12.5661 9.97388 13.3785V15.5682C9.97388 16.3807 9.31526 17.0393 8.50281 17.0393C7.69036 17.0393 7.03174 16.3807 7.03174 15.5682V13.3785C7.03174 12.5661 7.69036 11.9075 8.50281 11.9075V11.9075ZM20.4766 11.9075C19.6641 11.9075 19.0055 12.5661 19.0055 13.3785V15.5682C19.0055 16.3807 19.6641 17.0393 20.4766 17.0393C21.289 17.0393 21.9477 16.3807 21.9477 15.5682V13.3785C21.9477 12.5661 21.289 11.9075 20.4766 11.9075V11.9075ZM15.7528 19.8394C15.7528 19.8394 15.1304 19.8617 14.508 19.8709L13.2633 19.8394C12.9906 19.8341 12.7134 19.9489 12.5264 20.1758C12.2016 20.57 12.2579 21.1527 12.652 21.4775L13.2633 21.9812C13.2633 21.9812 13.4189 22.1094 13.6523 22.2165C13.769 22.255 13.9052 22.3153 14.051 22.3522L14.3208 22.3843V24.7059C14.3782 24.6641 14.4345 24.6209 14.4898 24.5763C14.5451 24.6209 14.6014 24.6641 14.6588 24.7059V22.4072C14.7633 22.3977 14.8664 22.3724 14.9651 22.3653C15.111 22.3633 15.2471 22.275 15.3638 22.236C15.5972 22.1335 15.7528 21.9812 15.7528 21.9812L16.4023 21.3453C16.4892 21.2598 16.5573 21.1571 16.6023 21.0439C16.6473 20.9306 16.6682 20.8092 16.6637 20.6874C16.6462 20.2016 16.2384 19.822 15.7528 19.8394V19.8394Z" fill="#2B3B47"/>
</svg>
