<svg width="35" height="34" viewBox="0 0 35 34" fill="none" xmlns="http://www.w3.org/2000/svg">
<path d="M26.0634 7.06794H9.5739C6.33733 7.06794 3.71558 9.66143 3.71558 12.8612V21.0134C3.71558 24.2132 6.33875 26.8082 9.5739 26.8082H26.0634C29.3 26.8082 31.9217 24.2132 31.9217 21.0134V12.8612C31.9217 9.66143 29.2986 7.06653 26.0634 7.06653V7.06794ZM22.1018 17.3331L14.3892 20.9724C14.3421 20.9951 14.2901 21.0055 14.238 21.0026C14.1859 20.9998 14.1353 20.9838 14.091 20.9561C14.0467 20.9285 14.0101 20.8901 13.9847 20.8445C13.9592 20.7989 13.9457 20.7476 13.9454 20.6954V13.192C13.9463 13.1395 13.9605 13.0881 13.9867 13.0426C14.0128 12.9971 14.0501 12.959 14.0949 12.9317C14.1398 12.9045 14.1908 12.8891 14.2433 12.8869C14.2957 12.8847 14.3478 12.8958 14.3948 12.9192L22.1089 16.7847C22.1602 16.8103 22.2034 16.8499 22.2332 16.8989C22.2631 16.948 22.2786 17.0044 22.2779 17.0618C22.2771 17.1192 22.2602 17.1753 22.2291 17.2235C22.1979 17.2717 22.1538 17.3102 22.1018 17.3345V17.3331Z" fill="#DF2424"/>
</svg>
